<?xml version="1.0" encoding="UTF-8"?><!DOCTYPE svg PUBLIC "-//W3C//DTD SVG 1.1//EN" "http://www.w3.org/Graphics/SVG/1.1/DTD/svg11.dtd"><svg xmlns="http://www.w3.org/2000/svg" xmlns:xlink="http://www.w3.org/1999/xlink"><symbol id="arrow_1" viewBox="0 0 19.5 15">
    <path d="M19.4 9.5c0-.1-.1-.2-.2-.2l-4.5-4.5c-.3-.3-.8-.3-1.1 0s-.3.8 0 1.1L16.9 9H9.8c-2.3 0-4.3-.9-5.9-2.4S1.5 3 1.5.8c0-.5-.3-.8-.7-.8S0 .3 0 .8c0 2.6 1 5.1 2.9 6.9 1.8 1.8 4.3 2.9 6.9 2.9H17l-3.2 3.2c-.3.3-.3.8 0 1.1.1.1.3.2.5.2s.4-.1.5-.2l4.5-4.5c.1-.1.1-.2.2-.2 0-.3 0-.6-.1-.7z"/>
</symbol><symbol id="arrow_2" viewBox="0 0 10.7 6">
    <path d="M5.3 6c-.2 0-.4-.1-.6-.2L.2 1.3C-.1 1-.1.5.2.2S1-.1 1.3.2l4 4 4-4c.3-.3.8-.3 1.1 0s.3.8 0 1.1L5.8 5.8c-.2.1-.4.2-.5.2z"/>
</symbol><symbol id="arrow_3" viewBox="0 0 12 22">
    <path d="M11.7 20.3 2.4 11l9.3-9.3c.2-.2.3-.4.3-.7s-.1-.5-.3-.7c-.2-.2-.4-.3-.7-.3-.3 0-.5.1-.7.3l-10 10c-.1.1-.2.2-.2.3-.1.1-.1.3-.1.4 0 .1 0 .3.1.4.1.1.1.2.2.3l10 10c.1.1.2.2.3.2s.3.1.4.1.3 0 .4-.1.2-.1.3-.2.2-.2.2-.3.1-.3.1-.4c0-.1 0-.3-.1-.4s-.1-.2-.2-.3z"/>
</symbol><symbol id="basket" viewBox="0 0 28 25">
    <path d="M14 12c-.6 0-1 .4-1 1v7c0 .6.4 1 1 1s1-.4 1-1v-7c0-.6-.4-1-1-1z"/>
    <path d="M27.9 9.4c-.1-.3-.2-.5-.4-.7-.2-.2-.4-.4-.7-.5-.2-.2-.5-.2-.8-.2h-4.5L14.8.3c-.4-.4-1.1-.4-1.5 0L6.5 8H2c-.3 0-.6 0-.8.2-.3.1-.5.2-.7.5-.2.2-.3.4-.4.7-.1.3-.1.6-.1.8l1.7 13c.1.5.3.9.7 1.3.4.3.8.5 1.3.5h20.5c.5 0 1-.2 1.3-.5.4-.3.6-.8.7-1.2l1.7-13c.1-.3.1-.6 0-.9zM14 2.5 18.8 8H9.2L14 2.5zM24.3 23H3.7L2 10h24l-1.7 13z"/>
    <path d="m19.6 12.9-.7 7c-.1.5.3 1 .9 1.1h.1c.5 0 .9-.4 1-.9l.7-7c.1-.5-.3-1-.9-1.1-.6-.1-1 .3-1.1.9zM7.3 12c-.5.1-1 .5-.9 1.1l.7 7c.1.5.5.9 1 .9h.1c.5-.1 1-.5.9-1.1l-.7-7c-.1-.6-.6-1-1.1-.9z"/>
</symbol><symbol id="basket_2" viewBox="0 0 27.4 30">
    <path d="M27.4 7c0-.3 0-.7-.2-1l-4-5.5c-.3-.3-.7-.5-1.1-.5H5.6c-.5 0-.8.2-1.1.5L.3 6c-.2.3-.3.6-.3 1v18.5C0 28 2 30 4.4 30H23c2.4 0 4.4-2 4.4-4.4V7zM6.2 2.7h15.2l2 2.8H4l2.2-2.8zm18.5 22.9c0 1-.8 1.8-1.8 1.8H4.4c-1 0-1.8-.8-1.8-1.8V8.1h22.1v17.5z"/>
    <path d="M13.7 19.3c3.8 0 6.9-3.1 6.9-6.9v-.2c0-.7-.6-1.3-1.3-1.3-.7 0-1.3.6-1.3 1.3v.2c0 2.3-1.9 4.2-4.2 4.2-2.3 0-4.2-1.9-4.2-4.2v-.2c0-.7-.6-1.3-1.3-1.3S7 11.5 7 12.2v.2c-.1 3.8 3 6.9 6.7 6.9z"/>
</symbol><symbol id="box" viewBox="0 0 448 512">
    <path d="M50.7 58.5 0 160h208V32H93.7c-18.2 0-34.8 10.3-43 26.5zM240 160h208L397.3 58.5c-8.2-16.2-24.8-26.5-43-26.5H240v128zm208 32H0v224c0 35.3 28.7 64 64 64h320c35.3 0 64-28.7 64-64V192z"/>
</symbol><symbol id="button_1" viewBox="0 0 15 15">
    <path d="M1.1 2.3c.6 0 1.1-.5 1.1-1.1S1.7 0 1.1 0 0 .5 0 1.1s.5 1.2 1.1 1.2zM7.5 2.3c.6 0 1.1-.5 1.1-1.1S8.1 0 7.5 0 6.4.5 6.4 1.1s.5 1.2 1.1 1.2zM13.9 2.3c.6 0 1.1-.5 1.1-1.1S14.5 0 13.9 0s-1.1.5-1.1 1.1.5 1.2 1.1 1.2zM1.1 8.6c.6 0 1.1-.5 1.1-1.1s-.5-1.1-1.1-1.1S0 6.9 0 7.5s.5 1.1 1.1 1.1zM7.5 8.6c.6 0 1.1-.5 1.1-1.1s-.5-1.1-1.1-1.1-1.1.5-1.1 1.1.5 1.1 1.1 1.1zM13.9 8.6c.6 0 1.1-.5 1.1-1.1s-.5-1.1-1.1-1.1-1.1.5-1.1 1.1.5 1.1 1.1 1.1zM1.1 15c.6 0 1.1-.5 1.1-1.1s-.5-1.1-1.1-1.1-1.1.5-1.1 1.1S.5 15 1.1 15zM7.5 15c.6 0 1.1-.5 1.1-1.1s-.5-1.1-1.1-1.1-1.1.5-1.1 1.1.5 1.1 1.1 1.1zM13.9 15c.6 0 1.1-.5 1.1-1.1s-.5-1.1-1.1-1.1-1.1.5-1.1 1.1.5 1.1 1.1 1.1z"/>
</symbol><symbol id="button_2" viewBox="0 0 17.3 14.3">
    <path d="M16.1 8.3h-15C.5 8.3 0 8.8 0 9.4v3.8c0 .6.5 1.1 1.1 1.1h15c.6 0 1.1-.5 1.1-1.1V9.4c.1-.6-.5-1.1-1.1-1.1zm.4 4.8c0 .2-.2.4-.4.4h-15c-.2 0-.4-.2-.4-.4V9.4c.1-.2.2-.4.4-.4h15c.2 0 .4.2.4.4v3.7zM16.1 0h-15C.5 0 0 .5 0 1.1v3.8C0 5.5.5 6 1.1 6h15c.6 0 1.1-.5 1.1-1.1V1.1c.1-.6-.5-1.1-1.1-1.1zm.4 4.9c0 .2-.2.4-.4.4h-15c-.2 0-.4-.2-.4-.4V1.1c0-.2.2-.4.4-.4h15c.2 0 .4.2.4.4v3.8z"/>
</symbol><symbol id="mail" viewBox="0 0 27 21">
    <path d="M26.9 1c-.1-.2-.2-.4-.3-.5-.1-.1-.3-.2-.4-.3-.2-.1-.4-.2-.6-.2H1.4C1.2 0 1 .1.9.1.7.2.5.3.4.5.3.6.2.8.1 1v.1c-.1.1-.1.2-.1.4v17c0 .7.3 1.3.7 1.8.5.4 1.1.7 1.8.7h22c.7 0 1.3-.3 1.8-.7.5-.5.7-1.1.7-1.8v-17c0-.2 0-.3-.1-.5zm-5.3 2-8.1 7.5L5.4 3h16.2zM3 18V4.9l9.5 8.7c.3.3.7.4 1 .4s.7-.1 1-.4L24 4.9V18H3z"/>
</symbol><symbol id="minus" viewBox="0 0 4.5 1.1">
    <path d="M4.5 0v1.1H0V0h4.5z"/>
</symbol><symbol id="phone" viewBox="0 0 26 26">
    <path d="M18.5 26c-4.9 0-9.6-1.9-13.1-5.4C1.9 17.1 0 12.4 0 7.5c0-1.8.7-3.6 1.9-5C3.1 1.2 4.7.3 6.5 0c.6-.1 1.1 0 1.6.3s.8.7 1 1.2l2.6 5.9c.3.4.3.8.3 1.2 0 .4-.2.8-.4 1.1l-.1.1-2.4 2.8c.9 1.6 2.6 3.3 4.2 4.1l2.8-2.4.1-.1c.3-.2.7-.4 1.2-.4.4 0 .8 0 1.2.2l5.9 2.7c.5.2.9.6 1.2 1 .3.5.4 1 .3 1.6-.2 1.8-1.1 3.5-2.5 4.7-1.4 1.3-3.2 2-5 2zM6.6 3.1c-1 .2-1.8.7-2.5 1.4-.7.8-1.1 1.9-1.1 3 0 4.1 1.6 8 4.5 11 2.9 2.9 6.8 4.5 11 4.5 1.1 0 2.2-.4 3-1.1.7-.6 1.2-1.5 1.4-2.4l-5.2-2.3-2.8 2.4-.1.1c-.4.1-.8.3-1.2.3-.4 0-.9 0-1.3-.2-2.4-1.2-4.9-3.6-6-6-.2-.4-.3-.9-.3-1.3s.2-.8.4-1.2l.1-.1 2.4-2.8-2.3-5.3zm16.7 16.5zm-9.4-1.3zM6.4 2.7z"/>
</symbol><symbol id="plus" viewBox="0 0 6.6 6.6">
    <path d="M6.6 2.7H3.8V0H2.7v2.7H0v1.1h2.7v2.8h1.1V3.8h2.8z"/>
</symbol><symbol id="search" viewBox="0 0 26 26">
    <path d="M25.7 24.3 19.4 18c1.6-1.9 2.6-4.4 2.6-7 0-6.1-4.9-11-11-11S0 4.9 0 11s4.9 11 11 11c2.7 0 5.1-1 7-2.6l6.3 6.3c.2.2.5.3.7.3s.5-.1.7-.3c.4-.4.4-1 0-1.4zM2 11c0-5 4-9 9-9s9 4 9 9-4 9-9 9-9-4-9-9z"/>
</symbol><symbol id="shopping_cart" viewBox="0 0 576 512">
    <path d="m528.1 301.3 47.3-208c3.4-15-8-29.3-23.4-29.3H159.2L150 19.2C147.8 8 137.9 0 126.5 0H24C10.7 0 0 10.7 0 24v16c0 13.3 10.7 24 24 24h69.9l70.2 343.4c-16.8 9.7-28.1 27.8-28.1 48.6 0 30.9 25.1 56 56 56s56-25.1 56-56c0-15.7-6.4-29.8-16.8-40h209.6c-10.4 10.2-16.8 24.3-16.8 40 0 30.9 25.1 56 56 56s56-25.1 56-56c0-22.2-12.9-41.3-31.6-50.4l5.5-24.3c3.4-15-8-29.3-23.4-29.3H218.1l-6.5-32h293.1c11.2 0 20.9-7.8 23.4-18.7z"/>
</symbol><symbol id="user" viewBox="0 0 26 25">
    <path d="M25.9 23.5c-1.9-3.3-4.8-5.7-8.3-6.8C20.2 15.2 22 12.3 22 9c0-5-4-9-9-9S4 4 4 9c0 3.3 1.8 6.2 4.4 7.7C5 17.8 2 20.2.1 23.5c-.2.5-.1 1.1.4 1.4.5.2 1.1.1 1.4-.4C4.2 20.4 8.4 18 13 18s8.8 2.4 11.1 6.5c.2.3.5.5.9.5.2 0 .3 0 .5-.1.5-.3.6-.9.4-1.4zM6 9c0-3.9 3.1-7 7-7s7 3.1 7 7-3.1 7-7 7-7-3.1-7-7z"/>
</symbol></svg>