<?xml version="1.0" encoding="utf-8"?>
<!-- Generator: Adobe Illustrator 24.1.2, SVG Export Plug-In . SVG Version: 6.00 Build 0)  -->
<svg version="1.1" id="Layer_1" xmlns="http://www.w3.org/2000/svg" xmlns:xlink="http://www.w3.org/1999/xlink" x="0px" y="0px"
	 viewBox="0 0 12 22" style="enable-background:new 0 0 12 22;" xml:space="preserve">
<path d="M11.7,20.3L2.4,11l9.3-9.3C11.9,1.5,12,1.3,12,1s-0.1-0.5-0.3-0.7C11.5,0.1,11.3,0,11,0c-0.3,0-0.5,0.1-0.7,0.3l-10,10
	c-0.1,0.1-0.2,0.2-0.2,0.3C0,10.7,0,10.9,0,11c0,0.1,0,0.3,0.1,0.4c0.1,0.1,0.1,0.2,0.2,0.3l10,10c0.1,0.1,0.2,0.2,0.3,0.2
	S10.9,22,11,22s0.3,0,0.4-0.1s0.2-0.1,0.3-0.2s0.2-0.2,0.2-0.3S12,21.1,12,21c0-0.1,0-0.3-0.1-0.4S11.8,20.4,11.7,20.3z"/>
</svg>
