<svg xmlns="http://www.w3.org/2000/svg" viewBox="0 0 27.4 30">
	<path d="M27.4,7c0-0.3,0-0.7-0.2-1l-4-5.5C22.9,0.2,22.5,0,22.1,0H5.6C5.1,0,4.8,0.2,4.5,0.5L0.3,6C0.1,6.3,0,6.6,0,7C0,7,0,7.1,0,7.1v18.4C0,28,2,30,4.4,30H23c2.4,0,4.4-2,4.4-4.4V7.1C27.4,7.1,27.4,7,27.4,7z M6.2,2.7h15.2l2,2.8H4L6.2,2.7z M24.7,25.6c0,1-0.8,1.8-1.8,1.8H4.4c-1,0-1.8-0.8-1.8-1.8V8.1h22.1V25.6z"/>
	<path d="M13.7,19.3c3.8,0,6.9-3.1,6.9-6.9v-0.2c0-0.7-0.6-1.3-1.3-1.3c-0.7,0-1.3,0.6-1.3,1.3v0.2c0,2.3-1.9,4.2-4.2,4.2c-2.3,0-4.2-1.9-4.2-4.2v-0.2c0-0.7-0.6-1.3-1.3-1.3s-1.3,0.6-1.3,1.3v0.2C6.9,16.2,10,19.3,13.7,19.3z"/>
</svg>
