<?xml version="1.0" encoding="utf-8"?>
<!-- Generator: Adobe Illustrator 24.1.2, SVG Export Plug-In . SVG Version: 6.00 Build 0)  -->
<svg version="1.1" id="Layer_1" xmlns="http://www.w3.org/2000/svg" xmlns:xlink="http://www.w3.org/1999/xlink" x="0px" y="0px"
	 viewBox="0 0 28 25" style="enable-background:new 0 0 28 25;" xml:space="preserve">
<g>
	<path d="M14,12c-0.6,0-1,0.4-1,1v7c0,0.6,0.4,1,1,1s1-0.4,1-1v-7C15,12.4,14.6,12,14,12z"/>
	<path d="M27.9,9.4c-0.1-0.3-0.2-0.5-0.4-0.7c-0.2-0.2-0.4-0.4-0.7-0.5C26.6,8,26.3,8,26,8h-4.5l-6.7-7.7c-0.4-0.4-1.1-0.4-1.5,0
		L6.5,8H2C1.7,8,1.4,8,1.2,8.2C0.9,8.3,0.7,8.4,0.5,8.7C0.3,8.9,0.2,9.1,0.1,9.4C0,9.7,0,10,0,10.2l1.7,13c0.1,0.5,0.3,0.9,0.7,1.3
		C2.8,24.8,3.2,25,3.7,25h20.5c0.5,0,1-0.2,1.3-0.5c0.4-0.3,0.6-0.8,0.7-1.2l1.7-13C28,10,28,9.7,27.9,9.4z M14,2.5L18.8,8H9.2
		L14,2.5z M24.3,23L3.7,23L2,10h24L24.3,23z"/>
	<path d="M19.6,12.9l-0.7,7c-0.1,0.5,0.3,1,0.9,1.1c0,0,0.1,0,0.1,0c0.5,0,0.9-0.4,1-0.9l0.7-7c0.1-0.5-0.3-1-0.9-1.1
		C20.1,11.9,19.7,12.3,19.6,12.9z"/>
	<path d="M7.3,12c-0.5,0.1-1,0.5-0.9,1.1l0.7,7c0.1,0.5,0.5,0.9,1,0.9c0,0,0.1,0,0.1,0c0.5-0.1,1-0.5,0.9-1.1l-0.7-7
		C8.3,12.3,7.8,11.9,7.3,12z"/>
</g>
</svg>
