<?xml version="1.0" encoding="utf-8"?>
<!-- Generator: Adobe Illustrator 24.1.2, SVG Export Plug-In . SVG Version: 6.00 Build 0)  -->
<svg version="1.1" id="Layer_1" xmlns="http://www.w3.org/2000/svg" xmlns:xlink="http://www.w3.org/1999/xlink" x="0px" y="0px"
	 viewBox="0 0 17.3 14.3" style="enable-background:new 0 0 17.3 14.3;" xml:space="preserve">
<g>
	<path d="M16.1,8.3h-15C0.5,8.3,0,8.8,0,9.4v3.8c0,0.6,0.5,1.1,1.1,1.1h15c0.6,0,1.1-0.5,1.1-1.1V9.4C17.3,8.8,16.7,8.3,16.1,8.3z
		 M16.5,13.1c0,0.2-0.2,0.4-0.4,0.4h-15c-0.2,0-0.4-0.2-0.4-0.4V9.4C0.8,9.2,0.9,9,1.1,9h15c0.2,0,0.4,0.2,0.4,0.4V13.1z"/>
	<path d="M16.1,0h-15C0.5,0,0,0.5,0,1.1v3.8C0,5.5,0.5,6,1.1,6h15c0.6,0,1.1-0.5,1.1-1.1V1.1C17.3,0.5,16.7,0,16.1,0z M16.5,4.9
		c0,0.2-0.2,0.4-0.4,0.4h-15c-0.2,0-0.4-0.2-0.4-0.4V1.1c0-0.2,0.2-0.4,0.4-0.4h15c0.2,0,0.4,0.2,0.4,0.4V4.9z"/>
</g>
</svg>
