<?xml version="1.0" encoding="utf-8"?>
<!-- Generator: Adobe Illustrator 24.1.2, SVG Export Plug-In . SVG Version: 6.00 Build 0)  -->
<svg version="1.1" id="Layer_1" xmlns="http://www.w3.org/2000/svg" xmlns:xlink="http://www.w3.org/1999/xlink" x="0px" y="0px"
	 viewBox="0 0 15 15" style="enable-background:new 0 0 15 15;" xml:space="preserve">
<g>
	<path d="M1.1,2.3c0.6,0,1.1-0.5,1.1-1.1S1.7,0,1.1,0S0,0.5,0,1.1S0.5,2.3,1.1,2.3z"/>
	<path d="M7.5,2.3c0.6,0,1.1-0.5,1.1-1.1S8.1,0,7.5,0S6.4,0.5,6.4,1.1S6.9,2.3,7.5,2.3z"/>
	<path d="M13.9,2.3c0.6,0,1.1-0.5,1.1-1.1S14.5,0,13.9,0s-1.1,0.5-1.1,1.1S13.3,2.3,13.9,2.3z"/>
	<path d="M1.1,8.6c0.6,0,1.1-0.5,1.1-1.1S1.7,6.4,1.1,6.4S0,6.9,0,7.5S0.5,8.6,1.1,8.6z"/>
	<path d="M7.5,8.6c0.6,0,1.1-0.5,1.1-1.1S8.1,6.4,7.5,6.4S6.4,6.9,6.4,7.5S6.9,8.6,7.5,8.6z"/>
	<path d="M13.9,8.6c0.6,0,1.1-0.5,1.1-1.1s-0.5-1.1-1.1-1.1s-1.1,0.5-1.1,1.1S13.3,8.6,13.9,8.6z"/>
	<path d="M1.1,15c0.6,0,1.1-0.5,1.1-1.1s-0.5-1.1-1.1-1.1S0,13.3,0,13.9S0.5,15,1.1,15z"/>
	<path d="M7.5,15c0.6,0,1.1-0.5,1.1-1.1s-0.5-1.1-1.1-1.1s-1.1,0.5-1.1,1.1S6.9,15,7.5,15z"/>
	<path d="M13.9,15c0.6,0,1.1-0.5,1.1-1.1s-0.5-1.1-1.1-1.1s-1.1,0.5-1.1,1.1S13.3,15,13.9,15z"/>
</g>
</svg>
