<?xml version="1.0" encoding="utf-8"?>
<!-- Generator: Adobe Illustrator 24.1.2, SVG Export Plug-In . SVG Version: 6.00 Build 0)  -->
<svg version="1.1" id="Layer_1" xmlns="http://www.w3.org/2000/svg" xmlns:xlink="http://www.w3.org/1999/xlink" x="0px" y="0px"
	 viewBox="0 0 27 21" style="enable-background:new 0 0 27 21;" xml:space="preserve">
<path d="M26.9,1C26.9,1,26.9,1,26.9,1c-0.1-0.2-0.2-0.4-0.3-0.5c0,0,0,0,0,0c0,0,0,0,0,0c-0.1-0.1-0.3-0.2-0.4-0.3c0,0,0,0,0,0
	C26,0.1,25.8,0,25.6,0c0,0,0,0-0.1,0c0,0,0,0,0,0h-24c0,0,0,0,0,0c0,0,0,0-0.1,0C1.2,0,1,0.1,0.9,0.1c0,0,0,0,0,0
	C0.7,0.2,0.5,0.3,0.4,0.5c0,0,0,0,0,0c0,0,0,0,0,0C0.3,0.6,0.2,0.8,0.1,1c0,0,0,0,0,0.1C0,1.2,0,1.3,0,1.5v17c0,0.7,0.3,1.3,0.7,1.8
	C1.2,20.7,1.8,21,2.5,21h22c0.7,0,1.3-0.3,1.8-0.7c0.5-0.5,0.7-1.1,0.7-1.8v-17C27,1.3,27,1.2,26.9,1z M21.6,3l-8.1,7.5L5.4,3H21.6z
	 M3,18V4.9l9.5,8.7c0.3,0.3,0.7,0.4,1,0.4s0.7-0.1,1-0.4L24,4.9V18H3z"/>
</svg>
