<?xml version="1.0" encoding="utf-8"?>
<!-- Generator: Adobe Illustrator 24.1.2, SVG Export Plug-In . SVG Version: 6.00 Build 0)  -->
<svg version="1.1" id="Layer_1" xmlns="http://www.w3.org/2000/svg" xmlns:xlink="http://www.w3.org/1999/xlink" x="0px" y="0px"
	 viewBox="0 0 26 26" style="enable-background:new 0 0 26 26;" xml:space="preserve">
<path d="M18.5,26C18.5,26,18.5,26,18.5,26c-4.9,0-9.6-1.9-13.1-5.4C1.9,17.1,0,12.4,0,7.5c0-1.8,0.7-3.6,1.9-5
	C3.1,1.2,4.7,0.3,6.5,0c0.6-0.1,1.1,0,1.6,0.3c0.5,0.3,0.8,0.7,1,1.2l2.6,5.9C12,7.8,12,8.2,12,8.6c0,0.4-0.2,0.8-0.4,1.1
	c0,0-0.1,0.1-0.1,0.1l-2.4,2.8c0.9,1.6,2.6,3.3,4.2,4.1l2.8-2.4c0,0,0.1-0.1,0.1-0.1c0.3-0.2,0.7-0.4,1.2-0.4c0.4,0,0.8,0,1.2,0.2
	l5.9,2.7c0.5,0.2,0.9,0.6,1.2,1c0.3,0.5,0.4,1,0.3,1.6c-0.2,1.8-1.1,3.5-2.5,4.7C22.1,25.3,20.3,26,18.5,26z M6.6,3.1
	C5.6,3.3,4.8,3.8,4.1,4.5C3.4,5.3,3,6.4,3,7.5c0,4.1,1.6,8,4.5,11c2.9,2.9,6.8,4.5,11,4.5c0,0,0,0,0,0c1.1,0,2.2-0.4,3-1.1
	c0.7-0.6,1.2-1.5,1.4-2.4l-5.2-2.3l-2.8,2.4c0,0-0.1,0.1-0.1,0.1C14.4,19.8,14,20,13.6,20c-0.4,0-0.9,0-1.3-0.2
	c-2.4-1.2-4.9-3.6-6-6C6.1,13.4,6,12.9,6,12.5c0-0.4,0.2-0.8,0.4-1.2c0,0,0.1-0.1,0.1-0.1l2.4-2.8L6.6,3.1z M23.3,19.6
	C23.3,19.6,23.3,19.6,23.3,19.6L23.3,19.6z M13.9,18.3L13.9,18.3L13.9,18.3z M6.4,2.7C6.4,2.7,6.4,2.7,6.4,2.7L6.4,2.7z"/>
</svg>
