<?xml version="1.0" encoding="utf-8"?>
<!-- Generator: Adobe Illustrator 24.1.2, SVG Export Plug-In . SVG Version: 6.00 Build 0)  -->
<svg version="1.1" id="Layer_1" xmlns="http://www.w3.org/2000/svg" xmlns:xlink="http://www.w3.org/1999/xlink" x="0px" y="0px"
	 viewBox="0 0 26 25" style="enable-background:new 0 0 26 25;" xml:space="preserve">
<path d="M25.9,23.5c-1.9-3.3-4.8-5.7-8.3-6.8C20.2,15.2,22,12.3,22,9c0-5-4-9-9-9C8,0,4,4,4,9c0,3.3,1.8,6.2,4.4,7.7
	C5,17.8,2,20.2,0.1,23.5C-0.1,24,0,24.6,0.5,24.9C1,25.1,1.6,25,1.9,24.5C4.2,20.4,8.4,18,13,18s8.8,2.4,11.1,6.5
	c0.2,0.3,0.5,0.5,0.9,0.5c0.2,0,0.3,0,0.5-0.1C26,24.6,26.1,24,25.9,23.5z M6,9c0-3.9,3.1-7,7-7c3.9,0,7,3.1,7,7s-3.1,7-7,7
	C9.1,16,6,12.9,6,9z"/>
</svg>
